<svg width="392" height="140" viewBox="0 0 392 140" fill="none" xmlns="http://www.w3.org/2000/svg">
<path d="M151.872 68.9733C150.528 62.2533 144.984 53.5173 130.536 53.5173C119.28 53.5173 109.788 61.5813 109.788 72.1653C109.788 81.1533 115.92 87.2853 125.412 89.2173L133.728 90.8973C138.348 91.8213 140.952 94.5093 140.952 97.9533C140.952 102.153 137.508 105.261 131.292 105.261C122.892 105.261 118.776 99.9693 118.272 94.0893L107.52 96.9453C108.444 105.429 115.416 115.593 131.208 115.593C145.068 115.593 152.712 106.353 152.712 97.1973C152.712 88.7973 146.916 81.7413 136.08 79.6413L127.764 78.0453C123.396 77.2053 121.296 74.6013 121.296 71.3253C121.296 67.3773 124.992 63.7653 130.62 63.7653C138.18 63.7653 140.868 68.8893 141.456 72.1653L151.872 68.9733ZM179.895 82.0773C185.439 82.0773 188.043 85.6053 189.051 89.0493L199.047 85.6893C197.283 78.7173 190.899 71.7453 179.643 71.7453C167.631 71.7453 158.223 80.9013 158.223 93.6693C158.223 106.353 167.799 115.593 179.979 115.593C190.983 115.593 197.451 108.537 199.299 101.649L189.471 98.3733C188.547 101.565 185.691 105.345 179.979 105.345C174.267 105.345 169.395 101.145 169.395 93.6693C169.395 86.1933 174.183 82.0773 179.895 82.0773ZM204.831 103.077C204.831 109.545 210.207 115.509 219.027 115.509C225.159 115.509 229.107 112.653 231.207 109.377C231.207 110.973 231.375 113.241 231.627 114.333H241.876C241.624 112.905 241.372 109.965 241.372 107.781V87.4533C241.372 79.1373 236.5 71.7453 223.395 71.7453C212.307 71.7453 206.343 78.8853 205.671 85.3533L215.583 87.4533C215.919 83.8413 218.607 80.7333 223.479 80.7333C228.183 80.7333 230.451 83.1693 230.451 86.1093C230.451 87.5373 229.695 88.7133 227.343 89.0493L217.179 90.5613C210.291 91.5693 204.831 95.6853 204.831 103.077ZM221.379 107.193C217.767 107.193 216.003 104.841 216.003 102.405C216.003 99.2133 218.271 97.6173 221.127 97.1973L230.451 95.7693V97.6173C230.451 104.925 226.083 107.193 221.379 107.193ZM263.804 114.333V53.5173H252.632V114.333H263.804ZM286.937 114.333V73.0053H275.765V114.333H286.937ZM274.421 59.4813C274.421 63.1773 277.529 66.2853 281.309 66.2853C285.173 66.2853 288.197 63.1773 288.197 59.4813C288.197 55.6173 285.173 52.5093 281.309 52.5093C277.529 52.5093 274.421 55.6173 274.421 59.4813ZM317.462 105.429C312.002 105.429 306.962 101.397 306.962 93.6693C306.962 85.8573 312.002 81.9093 317.462 81.9093C322.922 81.9093 327.962 85.8573 327.962 93.6693C327.962 101.481 322.922 105.429 317.462 105.429ZM317.462 71.7453C305.114 71.7453 295.79 80.9013 295.79 93.6693C295.79 106.353 305.114 115.593 317.462 115.593C329.81 115.593 339.134 106.353 339.134 93.6693C339.134 80.9013 329.81 71.7453 317.462 71.7453ZM359.123 90.5613C359.123 85.7733 361.979 81.9933 366.851 81.9933C372.227 81.9933 374.495 85.6053 374.495 90.2253V114.333H385.667V88.2933C385.667 79.2213 380.963 71.9133 370.715 71.9133C366.263 71.9133 361.307 73.8453 358.787 78.1293V73.0053H347.951V114.333H359.123V90.5613Z" fill="white"/>
<path fill-rule="evenodd" clip-rule="evenodd" d="M28.2193 38.1537C28.0586 38.2051 27.9018 38.2566 27.7503 38.3079C16.6824 42.0725 9.92292 48.8392 0.929731 65.1574C0.295888 66.3066 -0.110361 67.3594 0.0265528 67.4961C0.163466 67.6331 0.879009 67.4328 1.6161 67.0518C3.33716 66.1616 6.53826 65.03 6.74653 65.2383C6.83452 65.3263 6.39147 66.5634 5.76165 67.9872C2.82364 74.6314 2.25129 85.0283 4.32789 94.0412C5.49232 99.0945 8.09097 106.835 8.62337 106.835C8.78633 106.835 9.40357 105.573 9.9943 104.029C11.1354 101.05 14.2642 95.8951 15.7007 94.6272C16.5302 93.8945 16.6164 93.9708 18.0251 96.688C20.5254 101.51 24.5476 105.578 34.0503 112.895C42.5917 119.471 45.2601 125.144 42.5241 130.91C41.531 133.003 38.4382 136.12 35.6559 137.832C34.4043 138.602 33.38 139.428 33.38 139.667C33.38 140.404 51.9622 139.799 55.3761 138.952C62.3401 137.223 68.9731 132.552 71.9686 127.268C74.8589 122.17 75.9318 115.037 74.5155 110.331L73.9037 108.298L76.7772 105.727C80.5205 102.379 82.6275 99.2122 83.3112 95.9061C83.7046 94.0039 84.1934 92.9957 85.0876 92.2434C86.8117 90.7926 88.5944 88.0481 88.5944 86.8441C88.5944 86.0841 89.1264 85.5682 90.7266 84.7742C92.5477 83.8709 92.8795 83.5006 93.0011 82.2371C93.2475 79.673 91.5458 77.0887 86.3641 72.1586L81.5134 67.543L82.6479 65.3105L83.7825 63.0777L80.1563 59.706L76.5308 56.3339L77.4681 54.5393C78.0341 53.4553 78.4915 51.5424 78.6226 49.7114C78.8186 46.9667 78.7015 46.3976 77.3908 43.7353C76.3973 41.7169 75.3559 40.3648 74.0756 39.4321C73.3864 38.9295 72.8037 38.5119 72.2479 38.1537H49.3075C50.3356 38.4867 51.3837 38.7928 52.3486 39.0353C55.1245 39.7325 59.2459 40.5521 61.5067 40.8573C66.5485 41.5377 69.8915 43.105 71.6336 45.6052C73.8148 48.7363 73.1243 52.639 69.8892 55.4712L68.3104 56.8528L71.1578 59.5844C72.7239 61.0873 74.561 62.7527 75.2398 63.2856C76.7259 64.4527 76.7263 64.4576 75.4887 67.1825C74.9464 68.3755 74.4921 69.4741 74.4788 69.6227C74.4653 69.7716 75.9691 71.1111 77.8209 72.5989C79.6726 74.0864 82.1975 76.3525 83.4321 77.6344L85.6765 79.9652L81.6823 79.8208C78.9574 79.7223 77.6305 79.8408 77.507 80.1931C77.4079 80.4774 78.5489 81.5672 80.0429 82.6149C83.3987 84.969 83.6757 86.3382 81.1813 88.2411C79.7874 89.3041 79.3816 89.4014 77.7023 89.0759C76.6563 88.8736 74.1848 88.7042 72.2097 88.6993C69.1805 88.6923 68.2103 88.8883 66.0107 89.9523C62.1439 91.8227 59.8577 91.1696 57.1396 87.4174C55.8595 85.6497 55.4703 83.5924 56.1036 81.9413C56.4641 81.0021 58.6031 79.901 60.067 79.901C61.295 79.901 61.6156 79.2542 60.5841 78.8587C60.2392 78.7262 58.4715 78.4837 56.6561 78.3195C51.8516 77.8859 50.2348 77.3831 49.5542 76.111C48.6668 74.4527 49.2816 71.0708 50.8879 68.7778C52.5119 66.4596 52.6143 65.7559 51.2237 66.4776C47.5123 68.4031 44.1534 72.9969 44.1534 76.1469C44.1534 78.4245 43.4511 78.3258 41.4202 75.7622C37.0237 70.2126 36.6879 65.1198 40.3972 60.2564C41.0314 59.4246 41.4624 58.6551 41.3537 58.5471C41.2456 58.4383 40.4677 58.5837 39.6251 58.8693C32.6541 61.2341 30.4757 68.4882 34.3744 76.3553C36.4217 80.4865 39.3108 83.7508 44.8166 88.154C47.1679 90.034 51.055 93.138 53.4548 95.0514C65.9013 104.975 69.2972 109.407 69.2869 115.713C69.2811 119.399 68.4304 122.353 66.6136 124.993C62.9447 130.326 58.1506 132.905 49.7917 134.043L47.5746 134.345L49.8311 132.088C56.3932 125.526 53.1293 118.101 39.0621 107.59C32.5374 102.714 32.1146 102.367 28.3264 98.7793C23.3786 94.0942 20.362 88.6172 20.362 84.3194C20.362 82.1298 19.8472 82.1245 16.7354 84.28C15.1292 85.3927 13.6227 87.0063 12.3039 89.0267C9.96873 92.6039 9.95076 92.5874 9.13241 86.086C8.49184 80.9963 9.04309 75.6096 10.6605 71.1534C12.5665 65.9013 17.4235 60.3152 22.6254 57.3916C23.6026 56.8425 24.402 56.2406 24.402 56.0543C24.402 55.016 16.0207 55.0695 14.0568 56.1206C12.5454 56.9296 13.085 55.9776 15.9157 52.8411C22.4278 45.6255 30.1429 42.2149 39.9828 42.2004L44.5653 42.1936L43.2224 40.0341C42.8757 39.4758 42.532 38.8031 42.2501 38.1537H28.2193ZM55.6346 45.5581C50.9136 44.4428 47.7447 43.2383 47.7447 42.5595C47.7447 42.0917 48.0657 42.1022 49.9891 42.63C50.8534 42.8675 53.9845 43.3666 56.9471 43.7388C59.9097 44.1114 63.0854 44.6313 64.0033 44.8933C66.0028 45.4647 68.3158 47.3169 68.8788 48.7965C69.4862 50.3941 68.3375 52.6775 66.1166 54.2861C63.787 55.9734 63.0859 56.0485 64.3211 54.4777C65.5802 52.8771 65.4936 51.0792 64.0761 49.3943C62.4596 47.4731 61.0729 46.8433 55.6346 45.5581ZM22.4072 50.8718C24.1948 49.4209 28.724 47.2052 31.4085 46.4681C34.338 45.6635 34.7118 45.6873 33.397 46.5938C32.7896 47.0131 31.3182 48.1236 30.1278 49.0614L27.9636 50.7673L28.8762 52.0487C30.1049 53.7738 30.0529 53.8505 28.1055 53.1827C27.1798 52.8654 25.2212 52.4568 23.7538 52.2751L21.0856 51.9442L22.4072 50.8718ZM63.4674 69.3623C62.7205 68.6471 62.1094 67.8974 62.1094 67.6967C62.1094 67.2564 64.151 67.2306 67.911 67.6237C70.4692 67.8909 70.682 67.9949 70.4634 68.8667C70.322 69.4295 70.6797 70.6197 71.3396 71.7812C71.9532 72.8614 72.3914 73.8089 72.3133 73.8866C72.2356 73.9648 71.2714 73.2214 70.1708 72.2351C68.4985 70.7369 67.8949 70.4604 66.4974 70.5528C65.1754 70.6398 64.5402 70.3901 63.4674 69.3623ZM26.4894 77.4527C26.5025 75.4147 26.6691 73.4939 26.8602 73.185C27.276 72.5121 27.9753 73.3749 27.9865 74.5745C27.9995 75.9668 31.567 82.3772 33.705 84.8491C36.1079 87.6288 40.3221 91.5812 43.0313 93.5977C54.3928 102.054 61.5428 108.595 63.3124 112.152C64.4908 114.52 64.3697 118.618 63.0446 121.2C61.9066 123.417 60.5297 125.085 59.28 125.758C58.565 126.144 58.5879 125.969 59.4753 124.258C60.7992 121.706 60.7815 118.49 59.43 115.84C57.8781 112.798 54.6075 109.627 44.8205 101.675C33.9596 92.8499 30.4829 89.2862 28.1701 84.6069C26.6026 81.4345 26.4679 80.8621 26.4894 77.4527ZM77.3409 93.5345C76.9979 92.894 76.2457 92.1905 75.6688 91.9709C73.2102 91.0364 68.3312 91.7483 64.8832 93.5447C63.6589 94.1827 63.4893 94.4382 63.9329 94.9723C64.2297 95.33 64.7997 96.2773 65.1987 97.0767C65.9211 98.5222 66.2594 98.6743 70.542 99.4837C71.1256 99.5941 71.7579 100.177 72.0085 100.836C72.3949 101.852 72.5417 101.919 73.2058 101.385C74.7773 100.117 76.4503 98.0226 77.1937 96.3902C77.8661 94.9144 77.885 94.5509 77.3409 93.5345Z" fill="url(#paint0_linear_1152_14)"/>
<path fill-rule="evenodd" clip-rule="evenodd" d="M49.3457 0.2961C47.9537 4.04962 46.4223 6.55685 43.9233 9.17438C42.5471 10.6158 39.9433 12.7609 39.108 13.1416C38.6507 13.35 38.6742 13.4486 39.2459 13.7218C39.9928 14.0786 41.1585 15.2091 41.6824 16.0842C44.0323 20.0108 41.645 25.0931 37.0838 25.8746C35.8586 26.0843 34.3837 25.8636 33.1629 25.2877C32.0074 24.7429 30.7283 23.4306 30.1522 22.1991C29.4016 20.5953 29.3936 18.4706 30.1317 16.6721C30.18 16.5544 30.1513 16.5064 30.0649 16.5599C29.9816 16.6113 29.0152 16.7176 27.9171 16.796C22.574 17.1779 17.3485 15.9048 12.8928 13.1358C12.221 12.7183 11.6714 12.4189 11.6714 12.4703C11.6714 12.602 12.9529 14.2666 16.03 18.1313C21.7673 25.3374 24.0239 28.6358 26.249 33.0675L27.2262 35.014H49.3952H71.5644L72.3531 33.4224C74.4963 29.0969 76.8819 25.5773 82.2026 18.8917C85.6655 14.5403 87.2232 12.507 87.1499 12.4336C87.1161 12.3998 86.7619 12.6041 86.3629 12.8877C84.206 14.4213 80.2785 15.9726 77.1735 16.5172C75.2401 16.8564 71.6559 16.9427 69.8123 16.6945C68.9847 16.583 68.8207 16.5948 68.8844 16.7609C69.618 18.6727 69.5783 20.5023 68.7663 22.2123C66.9207 26.0986 62.0344 27.1551 58.641 24.4015C57.2865 23.3022 56.3912 21.3696 56.3856 19.5326C56.3789 17.2089 57.4464 15.2317 59.3856 13.9761L60.2419 13.4217L58.8681 12.4848C57.1808 11.3343 54.3596 8.62794 53.185 7.0333C51.7477 5.08214 50.9413 3.57602 49.5786 0.2961L49.4556 0L49.3457 0.2961Z" fill="url(#paint1_linear_1152_14)"/>
<defs>
<linearGradient id="paint0_linear_1152_14" x1="46.512" y1="23.789" x2="46.512" y2="139.998" gradientUnits="userSpaceOnUse">
<stop stop-color="#CE8D00"/>
<stop offset="0.583333" stop-color="#F0D000"/>
<stop offset="1" stop-color="#D39600"/>
</linearGradient>
<linearGradient id="paint1_linear_1152_14" x1="23.3335" y1="18.6667" x2="68.8335" y2="26.8333" gradientUnits="userSpaceOnUse">
<stop stop-color="#CE8D00"/>
<stop offset="0.583333" stop-color="#F0D000"/>
<stop offset="1" stop-color="#D39600"/>
</linearGradient>
</defs>
</svg>
